<?xml version="1.0" standalone="no"?>
<!DOCTYPE svg PUBLIC "-//W3C//DTD SVG 20010904//EN"
 "http://www.w3.org/TR/2001/REC-SVG-20010904/DTD/svg10.dtd">
<svg version="1.0" xmlns="http://www.w3.org/2000/svg"
 width="1024.000000pt" height="1024.000000pt" viewBox="0 0 1024.000000 1024.000000"
 preserveAspectRatio="xMidYMid meet">
<metadata>
Created by potrace 1.11, written by Peter Selinger 2001-2013
</metadata>
<g transform="translate(0.000000,1024.000000) scale(0.100000,-0.100000)"
fill="#000000" stroke="none">
<path d="M4735 10094 c-47 -24 -74 -55 -84 -93 -5 -20 -17 -110 -26 -201 -23
-236 -33 -248 -228 -279 -185 -30 -197 -22 -303 210 -86 188 -109 216 -184
226 -26 4 -71 -2 -128 -17 -74 -20 -93 -30 -129 -65 -40 -39 -43 -46 -43 -96
0 -30 7 -119 16 -199 20 -170 16 -205 -29 -247 -36 -35 -225 -113 -274 -113
-49 0 -91 38 -199 180 -125 166 -147 183 -229 178 -48 -4 -76 -13 -138 -48
-46 -27 -86 -57 -97 -75 -38 -62 -36 -87 29 -276 34 -97 61 -189 61 -206 0
-49 -40 -94 -148 -167 -90 -61 -107 -69 -147 -68 -55 0 -57 1 -219 141 -141
121 -175 138 -245 122 -59 -13 -179 -113 -204 -170 -30 -69 -20 -103 79 -263
114 -186 122 -205 100 -260 -22 -59 -176 -214 -224 -228 -48 -13 -71 -6 -185
57 -54 30 -132 71 -173 90 -70 33 -76 35 -121 23 -57 -13 -74 -26 -135 -105
-53 -68 -68 -101 -68 -150 0 -58 16 -82 143 -213 68 -70 130 -137 136 -150 27
-52 17 -96 -49 -207 -104 -175 -111 -178 -365 -106 -170 48 -187 51 -227 41
-57 -16 -96 -60 -135 -153 -38 -89 -42 -147 -13 -194 12 -20 72 -67 157 -124
167 -111 190 -132 204 -182 9 -34 6 -52 -31 -161 -62 -187 -69 -191 -309 -180
-205 10 -225 9 -265 -14 -40 -23 -66 -70 -82 -145 -27 -126 -12 -202 48 -241
13 -9 91 -42 174 -74 173 -66 197 -80 220 -124 14 -26 15 -49 10 -127 -9 -127
-22 -181 -53 -213 -36 -38 -57 -44 -251 -74 -242 -37 -262 -56 -262 -239 0
-183 20 -202 262 -239 194 -30 215 -36 251 -74 31 -32 44 -86 53 -213 5 -78 4
-101 -10 -127 -23 -44 -47 -58 -220 -124 -83 -32 -161 -65 -174 -74 -60 -39
-75 -115 -48 -241 16 -75 42 -122 82 -145 40 -23 60 -24 265 -14 240 11 247 7
309 -180 62 -185 60 -188 -173 -343 -85 -57 -145 -104 -157 -124 -29 -47 -25
-105 13 -194 39 -93 78 -137 135 -153 40 -10 57 -7 227 41 254 72 261 69 365
-106 66 -111 76 -155 49 -207 -6 -13 -68 -80 -136 -150 -127 -131 -143 -155
-143 -213 0 -49 15 -82 68 -150 61 -79 78 -92 135 -105 45 -12 51 -10 121 23
41 19 121 61 178 93 106 59 160 71 205 46 43 -25 184 -179 199 -220 22 -55 14
-74 -100 -260 -99 -160 -109 -194 -79 -263 25 -57 145 -157 204 -170 70 -16
104 1 245 122 162 140 164 141 219 141 40 1 57 -7 147 -68 108 -73 148 -118
148 -167 0 -17 -27 -109 -61 -206 -65 -189 -67 -214 -29 -276 11 -18 51 -48
97 -75 62 -35 90 -44 138 -48 82 -5 104 12 229 178 108 142 150 180 199 180
49 0 238 -78 274 -113 45 -42 49 -77 29 -247 -9 -80 -16 -169 -16 -199 0 -50
3 -57 43 -96 36 -35 55 -45 129 -65 173 -45 206 -24 306 197 39 87 81 171 94
186 41 50 86 57 215 36 196 -32 205 -43 229 -284 9 -94 22 -185 28 -204 6 -19
28 -48 49 -65 37 -29 43 -31 148 -34 120 -5 151 3 193 47 25 27 47 104 96 343
22 112 61 136 233 145 188 9 200 0 277 -235 29 -86 59 -169 66 -184 33 -63
100 -82 221 -62 97 15 138 36 170 84 22 31 23 42 23 224 0 265 5 274 195 327
116 32 163 34 206 6 13 -9 69 -91 123 -181 90 -151 103 -168 143 -187 55 -27
99 -22 202 21 155 64 165 99 105 359 -38 165 -40 211 -8 255 24 32 217 136
266 143 55 8 98 -23 228 -165 64 -69 129 -131 147 -138 67 -29 124 -14 229 62
125 89 128 136 21 358 -81 168 -91 210 -63 265 20 39 181 171 226 187 43 15
92 6 131 -24 13 -11 82 -58 152 -105 114 -77 133 -87 173 -87 64 0 113 29 182
109 47 55 62 80 67 114 9 60 -7 94 -108 224 -127 163 -137 180 -137 227 1 48
5 56 89 165 70 92 109 121 161 121 20 0 103 -29 195 -66 237 -98 279 -93 369
50 42 65 50 87 54 134 2 42 -2 65 -15 88 -10 18 -78 82 -151 144 -73 61 -140
124 -150 138 -31 48 -22 106 39 227 50 102 57 112 100 133 l46 23 174 -31
c204 -35 218 -36 268 -11 47 24 66 53 97 144 43 125 27 200 -53 250 -21 13
-98 54 -170 91 -190 96 -203 121 -160 308 42 181 59 192 311 203 179 7 207 13
244 48 43 40 54 76 59 187 4 93 2 109 -16 137 -30 48 -52 58 -235 108 -185 50
-191 53 -222 87 -31 34 -36 58 -36 183 0 125 5 149 36 183 31 34 37 37 222 87
183 50 205 60 235 108 18 28 20 44 16 137 -5 111 -16 147 -59 187 -37 35 -65
41 -244 48 -252 11 -269 22 -311 203 -43 187 -30 212 160 308 72 37 149 78
170 91 80 50 96 125 53 250 -31 91 -50 120 -97 144 -50 25 -64 24 -268 -11
l-174 -31 -46 24 c-42 21 -51 32 -100 133 -63 125 -71 182 -35 231 11 15 79
77 150 137 71 59 137 122 147 140 13 23 17 46 15 88 -4 47 -12 69 -54 134 -90
143 -132 148 -369 50 -92 -37 -175 -66 -195 -66 -52 0 -91 29 -161 121 -84
109 -88 117 -89 165 0 47 10 64 137 227 101 130 117 164 108 224 -5 34 -20 59
-67 114 -69 80 -118 109 -182 109 -40 0 -59 -10 -173 -87 -70 -47 -139 -94
-152 -105 -39 -30 -88 -39 -131 -24 -45 16 -206 148 -226 187 -28 55 -18 97
63 265 107 222 104 269 -21 358 -105 76 -162 91 -229 62 -18 -7 -83 -69 -147
-138 -130 -142 -173 -173 -228 -165 -49 7 -242 111 -266 143 -32 44 -30 90 8
255 41 178 44 230 16 276 -24 40 -46 54 -143 92 -91 36 -126 38 -182 11 -37
-18 -53 -39 -141 -186 -54 -90 -110 -172 -123 -181 -43 -28 -90 -26 -206 6
-190 53 -195 62 -195 327 0 182 -1 193 -23 224 -32 48 -75 69 -170 85 -120 19
-189 0 -221 -63 -7 -15 -37 -98 -66 -184 -77 -235 -89 -244 -277 -235 -172 9
-211 33 -233 145 -63 309 -76 344 -142 378 -39 20 -223 19 -263 -2z m620
-1379 c150 -5 349 -31 510 -65 55 -11 134 -28 175 -36 41 -9 141 -37 221 -64
534 -175 1001 -460 1408 -855 534 -519 886 -1169 1030 -1901 84 -425 84 -943
0 -1368 -144 -729 -495 -1379 -1025 -1896 -568 -555 -1274 -896 -2079 -1006
-248 -33 -671 -33 -920 0 -1024 139 -1886 651 -2487 1477 -334 459 -576 1055
-660 1629 -20 137 -23 193 -23 485 1 261 4 356 18 455 20 141 58 331 87 435
28 103 140 415 189 530 142 332 352 664 592 939 52 59 114 132 139 162 125
151 453 412 722 575 304 184 767 375 993 409 33 5 114 20 180 34 229 47 579
79 745 69 25 -1 108 -5 185 -8z"/>
<path d="M4790 7903 c-117 -11 -395 -73 -530 -119 -597 -204 -1089 -581 -1439
-1101 -242 -361 -417 -833 -461 -1244 -13 -121 -13 -587 0 -708 44 -411 219
-883 461 -1244 265 -393 619 -712 1031 -927 251 -131 467 -205 793 -272 103
-21 135 -23 475 -23 397 0 409 2 685 71 643 161 1229 579 1614 1151 242 361
417 833 461 1244 13 121 13 587 0 708 -44 411 -219 883 -461 1244 -209 310
-480 580 -786 783 -247 164 -550 299 -828 368 -261 66 -285 68 -640 71 -181 1
-350 1 -375 -2z m540 -158 c476 -29 956 -215 1375 -534 131 -100 371 -339 470
-471 301 -396 470 -797 546 -1295 29 -185 29 -555 0 -740 -49 -320 -124 -562
-256 -830 -142 -289 -315 -527 -540 -743 -213 -205 -420 -351 -670 -472 -270
-131 -484 -197 -800 -246 -168 -26 -536 -23 -715 5 -718 115 -1294 461 -1724
1036 -278 372 -465 834 -527 1305 -18 137 -15 518 4 660 33 231 50 298 144
565 102 288 266 578 462 813 47 57 104 126 126 153 50 62 190 188 309 278 292
223 672 401 971 457 236 44 317 55 442 63 134 8 184 8 383 -4z"/>
<path d="M4015 6036 c-5 -2 -44 -12 -85 -21 -232 -53 -438 -253 -529 -511
-135 -385 -54 -810 205 -1068 51 -52 165 -136 183 -136 4 0 23 -7 41 -16 18
-9 64 -25 104 -35 94 -25 268 -20 376 11 99 28 258 107 345 172 67 51 218 196
264 254 48 62 141 197 141 205 0 5 7 9 15 9 8 0 15 -3 15 -7 0 -5 12 -21 28
-38 25 -27 86 -101 137 -165 26 -32 182 -189 215 -215 94 -76 249 -161 365
-200 137 -46 335 -55 460 -21 287 79 492 327 570 691 15 67 14 300 -1 380 -69
372 -309 647 -614 704 -79 14 -252 6 -335 -17 -252 -68 -523 -279 -702 -544
l-71 -106 -24 26 c-13 15 -52 63 -88 107 -248 304 -446 448 -709 516 -68 17
-280 35 -306 25z m2251 -137 c304 -56 525 -374 526 -759 0 -213 -76 -407 -216
-545 -177 -174 -430 -220 -637 -115 -167 85 -281 203 -574 590 -44 58 -88 114
-97 124 -10 11 -18 23 -18 28 0 13 127 215 150 238 3 3 23 28 44 55 146 184
355 330 529 371 40 9 77 17 82 19 24 8 156 4 211 -6z m-2095 -69 c82 -22 195
-83 260 -142 14 -13 41 -37 60 -53 53 -47 146 -157 260 -305 58 -74 129 -166
159 -205 30 -38 53 -76 52 -84 -2 -8 -27 -51 -55 -95 -176 -278 -393 -474
-608 -546 -94 -32 -112 -35 -244 -35 -107 1 -128 4 -192 28 -220 86 -370 288
-428 582 -11 54 -13 233 -3 282 5 27 11 59 14 73 3 14 14 50 25 80 85 230 285
404 499 433 46 6 156 -1 201 -13z"/>
</g>
</svg>
